<?xml version="1.0" encoding="UTF-8" standalone="no"?><!DOCTYPE svg PUBLIC "-//W3C//DTD SVG 1.1//EN" "http://www.w3.org/Graphics/SVG/1.1/DTD/svg11.dtd"><svg width="100%" height="100%" viewBox="0 0 1705 2139" version="1.1" xmlns="http://www.w3.org/2000/svg" xmlns:xlink="http://www.w3.org/1999/xlink" xml:space="preserve" xmlns:serif="http://www.serif.com/" style="fill-rule:evenodd;clip-rule:evenodd;stroke-linecap:square;"><g id="Camada-1" serif:id="Camada 1"><rect id="rect42" x="-406.813" y="-623.623" width="2510.35" height="3520.19" style="fill:#fff;stroke:#1f5122;stroke-width:10.89px;"/><g><g id="g45"><ellipse id="ellipse37" cx="852.133" cy="782.274" rx="676.094" ry="666.311" style="fill:#fff;stroke:#1f5122;stroke-width:56.25px;stroke-linecap:round;"/><g id="g38"><path id="path38" d="M1072.24,476.589c-7.424,-0.684 -14.343,4.072 -16.364,11.249l-15.863,56.359c-100.7,16.171 -175.54,103.894 -175.647,205.884c0.126,48.125 16.891,94.757 47.437,131.946l-24.561,36.743c-3.06,4.582 -2.255,10.786 1.874,14.435l30.164,26.66c4.147,3.663 10.364,3.882 14.758,0.519l37.396,-28.595c11.963,6.767 24.565,12.336 37.622,16.626l3.687,47.29c0.44,5.673 4.969,10.238 10.638,10.724l51.172,4.382c6.588,0.563 12.66,-3.823 14.197,-10.254l10.412,-43.597c23.221,-2.98 45.775,-9.844 66.718,-20.306l38.336,31.945c4.843,4.034 11.891,4.184 16.901,0.36l39.508,-30.169c4.954,-3.783 6.073,-10.888 2.521,-16.01l-28.486,-41.07c16.321,-20.029 28.783,-42.916 36.75,-67.493l48.523,-5.316c6.773,-0.744 12.067,-6.332 12.445,-13.135l2.868,-51.611c0.363,-6.527 -3.848,-12.494 -10.119,-14.338l-46.088,-13.555c-3.588,-21.877 -10.639,-43.043 -20.886,-62.702l33.197,-43.768c4.207,-5.546 4.055,-13.319 -0.366,-18.695l-31.025,-37.72c-4.063,-4.942 -11.11,-6.349 -16.76,-3.345l-52.264,27.79c-15.268,-10.444 -31.856,-18.812 -49.329,-24.884l-5.206,-58.271c-0.632,-7.077 -6.285,-12.745 -13.361,-13.397l-50.799,-4.681Z" style="fill:#186989;fill-rule:nonzero;"/><circle id="circle38" cx="1067.08" cy="749.945" r="115.231" style="fill:#fff;"/></g><g id="g42"><path id="path39" d="M491.472,342.798c83.959,3.132 139.18,19.039 184.699,65.964c47.016,48.469 67.447,117.784 62.299,192.761c-60.358,-6.63 -142.941,-20.829 -189.096,-69.629c-45.298,-47.892 -54.013,-128.265 -57.902,-189.096Z" style="fill:#649621;fill-rule:nonzero;"/><path id="path40" d="M791.974,603.722c-19.124,-86.486 -17.713,-178.717 29.317,-246.998c42.399,-61.558 119.2,-95.461 198.624,-104.076c12.743,61.034 22.823,157.574 -15.391,220.612c-43.096,71.089 -131.011,114.471 -212.55,130.462Z" style="fill:#649621;fill-rule:nonzero;"/><path id="path41" d="M750.93,924.012l49.839,33.715c-21.217,-468.598 69.089,-489.388 139.257,-580.481c-94.742,58.424 -131.917,96.506 -171.506,238.935c-80.934,-130.672 -136.491,-153.086 -179.568,-180.301c68.743,86.218 184.939,149.142 161.245,388.454l-49.107,-30.783c16.703,43.278 49.82,48.257 49.84,130.461Z" style="fill:#215123;fill-rule:nonzero;"/><path id="path42" d="M530.317,677.748c41.496,-2.526 100.408,-1.154 139.257,25.652c37.625,25.961 58.205,72.775 71.095,117.269c-58.945,8.81 -106.872,0.195 -147.32,-29.317c-34.984,-25.526 -53.268,-73.326 -63.032,-113.604Z" style="fill:#326816;fill-rule:nonzero;"/></g><g id="g44"><path id="path43" d="M264.02,936.842c76.879,-16.684 164.842,-24.924 290.253,-4.632c96.88,20.879 176.072,67.026 253.948,115.054c59.772,26.125 112.289,28.383 179.318,35.242c50.889,16.053 55.084,58.371 63.227,98.469l224.258,-117.515c7.238,-3.793 19.726,-7.218 27.897,-7.206c23.088,0.035 47.46,4.78 81.128,43.608c4.986,5.75 10.746,16.478 13.184,23.691l20.462,60.532c-65.322,108.582 -297.759,346.435 -641.606,302.664c-472.778,-60.184 -564.351,-441.037 -594.963,-512.041l28.108,-16.217c14.244,-8.217 38.716,-18.162 54.786,-21.649Z" style="fill:#215022;fill-rule:nonzero;"/><path id="path44" d="M251.609,1008.91c82.705,-20.137 205.306,-28.988 305.774,-11.402c120.333,21.064 152.347,80.229 224.777,102.238c72.431,22.009 121.814,32.91 203.306,37.692c21.017,14.843 28.671,69.365 -35.901,86.639c-64.572,17.273 -210.661,-3.083 -334.137,-65.908l-18.658,7.255c55.936,43.713 114.735,94.638 229.072,107.798c191.247,22.013 324.007,-89.59 480.945,-167.916c17.67,3.32 33.682,11.199 40.424,44.57c-63.608,97.928 -233.328,269.657 -505.822,277.788c-413.589,-27.448 -550.742,-313.702 -589.78,-418.754Z" style="fill:#885a27;fill-rule:nonzero;"/></g></g><g transform="matrix(3.125,0,0,3.125,-372.822,-507.888)"><text x="114.268px" y="741.057px" style="font-family:'Montserrat-ExtraBold', 'Montserrat';font-weight:800;font-size:85.333px;fill:#215022;">MEU C<tspan x="392.37px " y="741.057px ">A</tspan>MPO</text><g transform="matrix(85.3333,0,0,85.3333,628.999,826.391)"></g><text x="151.559px" y="826.391px" style="font-family:'Montserrat-ExtraBold', 'Montserrat';font-weight:800;font-size:85.333px;fill:#215022;">SOLUÇ<tspan x="446.386px " y="826.391px ">Õ</tspan>ES</text></g></g></g></svg>